<svg width="90" height="86" viewBox="0 0 90 86" fill="none" xmlns="http://www.w3.org/2000/svg">
<g clip-path="url(#clip0_203_638)">
<path d="M86.9829 52.4837C86.9829 52.4837 76.0789 47.3413 69.8803 37.9189C64.9987 30.4975 60.5402 28.6422 40.9053 33.2582C38.5927 37.8969 44.6484 39.4189 55.8066 38.227C55.4345 43.0411 54.1192 46.8222 63.0113 53.5047" stroke="white" stroke-opacity="0.8" stroke-miterlimit="10" stroke-linecap="round" stroke-linejoin="round"/>
<path d="M17.0713 14.039C17.0713 14.039 17.0966 17.726 41.984 20.858C49.761 21.8368 49.8949 26.9115 53.7513 31.7043" stroke="white" stroke-opacity="0.8" stroke-miterlimit="10" stroke-linecap="round" stroke-linejoin="round"/>
<path d="M57.8936 49.1954C57.8936 49.1954 59.7465 53.4911 58.8557 56.365C57.9649 59.2389 55.2977 64.4226 52.7002 66.3903C50.1915 68.2949 44.6093 68.8697 52.5423 55.6543" stroke="white" stroke-opacity="0.8" stroke-miterlimit="10" stroke-linecap="round" stroke-linejoin="round"/>
<path d="M4.97559 27.1709C4.97559 27.1709 20.0373 30.9245 21.8211 38.8793" stroke="white" stroke-opacity="0.8" stroke-miterlimit="10" stroke-linecap="round" stroke-linejoin="round"/>
<path d="M47.7326 64.4877C47.7326 64.4877 34.9612 72.3477 45.9603 52.2483" stroke="white" stroke-opacity="0.8" stroke-miterlimit="10" stroke-linecap="round" stroke-linejoin="round"/>
<path d="M40.754 48.7542C38.5228 53.3927 37.7024 57.3386 38.4029 53.7187" stroke="white" stroke-opacity="0.8" stroke-miterlimit="10" stroke-linecap="round" stroke-linejoin="round"/>
<path d="M35.2892 59.9557C35.2892 59.9557 34.9767 65.3034 40.7922 62.7727" stroke="white" stroke-opacity="0.8" stroke-miterlimit="10" stroke-linecap="round" stroke-linejoin="round"/>
<path d="M31.2442 41.861L19.1986 45.46C17.7019 45.91 16.042 45.1285 15.506 43.7265C14.9699 42.3244 15.7587 40.8123 17.2554 40.3623L29.301 36.7633C30.7977 36.3133 32.4576 37.0948 32.9936 38.4969C33.5297 39.8989 32.7409 41.4111 31.2442 41.861Z" stroke="white" stroke-opacity="0.8" stroke-miterlimit="10" stroke-linecap="round" stroke-linejoin="round"/>
<path d="M32.6558 47.5008L21.8429 51.7414C20.3979 52.3048 18.68 51.6632 18.016 50.3113C17.3581 48.9579 17.9968 47.3919 19.44 46.8229L30.2529 42.5824C31.6979 42.019 33.4157 42.6605 34.0797 44.0125C34.7377 45.3659 34.099 46.9318 32.6558 47.5008Z" stroke="white" stroke-opacity="0.8" stroke-miterlimit="10" stroke-linecap="round" stroke-linejoin="round"/>
<path d="M34.0056 54.4766L24.7998 57.2259C23.3047 57.6746 21.6469 56.8963 21.1117 55.4994C20.5765 54.1025 21.3647 52.5956 22.8598 52.1469L32.0656 49.3976C33.5607 48.9489 35.2185 49.7272 35.7537 51.1241C36.2889 52.521 35.5025 54.0335 34.0056 54.4766Z" stroke="white" stroke-opacity="0.8" stroke-miterlimit="10" stroke-linecap="round" stroke-linejoin="round"/>
<path d="M36.5483 59.3799L29.6055 61.4478C28.1122 61.8953 26.4566 61.1198 25.9223 59.7275C25.388 58.3353 26.1754 56.8332 27.6687 56.3857L34.6115 54.3178C36.1048 53.8703 37.7604 54.6458 38.2947 56.038C38.829 57.4303 38.0415 58.9324 36.5483 59.3799Z" stroke="white" stroke-opacity="0.8" stroke-miterlimit="10" stroke-linecap="round" stroke-linejoin="round"/>
</g>
<defs>
<clipPath id="clip0_203_638">
<rect width="73.5828" height="68.65" fill="white" transform="translate(0 19.6196) rotate(-15.4641)"/>
</clipPath>
</defs>
</svg>
