<svg width="59" height="66" viewBox="0 0 59 66" fill="none" xmlns="http://www.w3.org/2000/svg">
<g clip-path="url(#clip0_203_631)">
<path d="M40.2328 61.3323C40.2328 61.3323 40.2328 57.8283 42.1833 54.5087C44.0695 51.2998 45.9557 44.2992 45.0214 35.34C44.9743 34.7137 45.0157 34.0842 45.1442 33.4682C47.6799 22.8234 49.689 14.6683 46.2795 14.4894C42.8699 14.3105 41.4792 29.1435 39.4311 31.4764C39.314 31.6166 39.1494 31.7143 38.9649 31.753C38.2608 31.8766 36.6126 31.1998 37.6932 21.3664C37.6932 21.3314 37.6932 21.2964 37.6932 21.2613C37.3323 8.58607 36.9403 6.32322 33.9871 6.19044C29.7116 5.99495 33.4663 28.1365 31.6465 28.6898C30.4001 29.0586 27.5504 8.11395 26.38 5.26833C25.3716 2.81369 22.4068 3.73579 21.8216 6.31769C21.2364 8.89958 25.6037 27.7677 24.6284 29.2431C23.698 30.652 22.0557 25.8387 21.9094 25.4016C21.9017 25.3818 21.8958 25.3614 21.8918 25.3407C21.8918 25.3407 19.5044 15.7674 18.771 12.4312C17.8093 8.06047 13.959 9.95816 14.1053 13.8974C14.3705 20.8058 16.9433 32.286 17.2027 33.1583C17.2124 33.1924 17.2202 33.2268 17.2261 33.2616C17.3373 34.0343 18.5584 43.0599 14.669 45.0184C14.5519 45.0793 14.3842 45.0184 14.2789 45.1014C13.1749 45.9977 1.10296 35.5115 0.0399109 40.4909C-1.03094 45.5588 19.7813 55.9011 22.2761 58.0109C25.1005 60.3992 24.5465 61.3305 24.5465 61.3305" stroke="white" stroke-miterlimit="10"/>
<path d="M31.2336 37.1149L31.2338 37.1151L31.2338 37.1151L31.689 37.5111L31.9935 36.9898C32.9646 35.3271 33.9872 34.4994 34.911 34.1911C35.8221 33.8869 36.7147 34.0618 37.5041 34.5692C39.1232 35.6098 40.2122 37.9958 39.8093 40.0978C39.3576 42.4537 37.7121 45.5123 36.1362 48.0269C35.3548 49.2739 34.6021 50.3693 34.0447 51.153C33.7779 51.5281 33.5561 51.8315 33.3977 52.0454C33.3445 52.0128 33.2863 51.9768 33.2234 51.9377C32.8673 51.7168 32.3588 51.3943 31.7509 50.9896C30.5341 50.1797 28.9243 49.0438 27.3451 47.7368C25.7623 46.4268 24.2291 44.9601 23.1509 43.4907C22.061 42.0053 21.5034 40.6088 21.6962 39.4095L21.6962 39.4095C22.0945 36.9297 22.9064 35.6524 23.7943 35.042C24.6762 34.4359 25.7513 34.4072 26.8688 34.6997C27.9866 34.9924 29.0761 35.5903 29.8992 36.1293C30.3076 36.3968 30.6438 36.6454 30.8771 36.8265C30.9937 36.9169 31.0843 36.9903 31.145 37.0405C31.1754 37.0655 31.1983 37.0848 31.2132 37.0975L31.2295 37.1114L31.2331 37.1145L31.2336 37.1149Z" stroke="white"/>
</g>
<defs>
<clipPath id="clip0_203_631">
<rect width="58.6667" height="66" fill="white"/>
</clipPath>
</defs>
</svg>
