<svg width="278" height="268" viewBox="0 0 278 268" fill="none" xmlns="http://www.w3.org/2000/svg">
<path d="M15.1251 179.129C16.0512 180.952 16.9773 182.789 17.8887 184.612C19.491 182.069 23.9598 182.304 25.2975 184.994C27.0615 183.201 30.075 184.303 32.28 185.494C36.6606 187.861 41.0265 190.213 45.4071 192.579C47.2593 193.579 49.3026 194.829 49.6995 196.887C50.3022 200.047 46.6419 203.178 47.9649 206.103C48.8616 208.088 51.6546 208.705 52.4631 210.734C52.9482 211.939 52.5807 213.365 53.0658 214.571C53.9037 216.629 56.6967 217.026 58.1814 218.687C59.9748 220.686 59.3721 223.758 59.5338 226.434C59.7102 229.109 62.121 232.284 64.4877 231.02C65.0904 230.697 65.5461 230.138 66.1635 229.859C67.5747 229.256 69.0741 230.358 70.5294 230.858C71.9847 231.358 74.2485 230.241 73.4988 228.888C76.2624 229.006 78.8349 231.035 79.5993 233.695C80.9811 231.74 83.7594 231.182 86.0967 231.74C88.434 232.299 90.4332 233.754 92.3736 235.165C92.7705 235.459 93.1674 235.739 93.5643 236.033C94.2699 236.547 95.0196 237.076 95.8869 237.165C97.7685 237.356 99.5325 235.371 101.341 235.974C103.207 236.591 103.207 239.208 102.84 241.134C106.544 238.561 109.558 234.989 111.439 230.888C114.35 230.447 117.114 229.05 119.216 226.977C120.789 224.508 122.376 222.053 123.949 219.583C125.052 217.863 126.213 216.085 127.962 215.056C129.712 214.012 132.24 213.983 133.563 215.526C135.65 217.966 133.328 221.627 130.902 223.729C128.477 225.831 125.551 228.594 126.551 231.637C130.123 231.579 134.607 232.122 135.768 235.489C136.106 236.459 136.091 237.547 136.606 238.429C137.326 239.678 138.899 240.193 139.84 241.281C140.854 242.471 141.001 244.147 141.28 245.676C141.913 249.233 143.5 252.614 145.823 255.378C149.086 255.378 152.364 255.393 155.628 255.393C159.097 257.465 157.098 263.61 160.185 266.197C162.992 268.549 167.05 266.079 170.328 264.433C172.165 263.507 174.12 262.875 176.075 262.228C177.193 261.861 178.324 261.493 179.5 261.331C182.558 260.92 185.66 261.978 188.717 261.625C191.775 261.273 195.009 258.377 193.833 255.525C195.685 255.275 197.405 254.246 198.508 252.747C201.742 248.292 199.39 240.59 204.064 237.664C207.886 238.884 212.164 238.546 215.751 236.753C216.794 236.224 217.823 235.577 218.999 235.489C221.307 235.342 223.057 237.4 224.674 239.076C226.291 240.737 229.378 241.942 231.45 240.898C234.067 239.59 236.051 237.076 236.713 234.225C235.904 235.68 237.389 237.547 239.035 237.782C240.682 238.017 242.269 237.179 243.725 236.371C245.415 235.43 247.12 234.489 248.811 233.548C249.384 233.225 249.987 232.872 250.281 232.284C251.192 230.388 248.149 228.036 249.399 226.345C251.369 225.228 254.265 226.728 254.485 228.977C260.439 225.537 266.392 222.082 272.346 218.643C273.551 217.937 274.962 215.614 274.962 215.614C274.962 215.614 271.14 212.601 269.45 210.646C267.95 208.911 268.48 206.309 268.377 204.016C268.112 198.357 263.511 192.756 265.76 187.567C266.128 186.729 266.671 185.92 266.686 185.009C266.73 183.054 264.364 181.863 262.408 182.084C260.453 182.304 258.719 183.377 256.793 183.774C255.352 181.834 255.455 178.879 257.043 177.056C257.896 176.071 259.086 175.439 260.071 174.572C262.614 172.352 263.673 168.589 262.658 165.37C263.658 164.694 264.996 165.678 265.481 166.781C265.966 167.883 266.025 169.177 266.774 170.133C268.48 172.308 271.934 171.029 274.227 169.5C276.55 167.957 277.153 162.856 277.153 162.856C277.153 162.856 278.461 158.093 276.403 156.476C274.345 154.845 271.802 154.021 269.303 153.228C267.245 148.832 264.055 144.981 260.13 142.144C259.233 141.497 258.263 140.865 257.69 139.924C257.175 139.071 257.028 138.042 256.675 137.102C255.94 135.117 254.5 133.912 252.809 132.648C244.96 126.797 239.903 117.359 239.374 107.569C239.168 103.718 237.124 99.4843 236.037 95.7946C234.949 92.0902 234.155 88.9003 230.318 89.3119C230.274 85.5193 224.732 83.2555 222.042 85.9309C222.616 88.3711 223.204 90.8113 223.777 93.2368C223.924 93.8542 224.056 94.5304 223.747 95.0743C223.145 96.1474 221.572 95.824 220.366 96.0592C217.529 96.6031 216.677 100.454 214.119 101.792C212.561 102.601 210.694 102.336 208.959 102.042C205.137 101.395 200.713 100.308 199.154 96.7501C198.552 95.383 198.463 93.7513 197.523 92.59C196.009 90.6937 193.142 90.8554 190.79 90.2821C188.423 89.7088 186.13 86.7247 187.938 85.1077C191.407 82.1824 193.407 77.9194 195.318 73.8034C195.935 72.4657 196.567 70.9957 196.229 69.5551C192.819 69.7021 189.364 68.2174 187.13 65.6302C184.837 62.4697 192.495 58.8829 190.702 55.4137C191.51 56.2222 192.922 55.1932 193.142 54.076C193.363 52.9588 193.024 51.7534 193.436 50.6803C194.171 48.7399 196.685 48.4312 198.684 47.902C204.476 46.3585 208.386 40.6255 209.577 34.7602C210.767 28.8949 209.753 22.8091 208.739 16.8997C205.578 16.2235 202.065 17.6935 200.33 20.4424C196.214 18.4579 191.407 15.2239 192.113 10.711C185.189 10.5493 178.251 13.6657 173.767 18.9577C173.797 17.0467 172.253 15.4003 170.475 14.7241C168.696 14.0626 166.711 14.1802 164.83 14.4301C163.918 14.5477 162.919 14.6653 162.169 14.1361C159.935 12.5632 163.228 8.72647 161.772 6.40387C155.878 8.37367 149.233 5.90407 145.676 0.817871C141.78 0.891371 137.855 5.38957 134.724 3.06697C134.621 6.41857 133.636 10.7698 130.3 11.0785C129.476 11.152 128.521 10.9903 127.962 11.5783C127.536 12.034 127.536 12.7249 127.565 13.357C127.742 17.326 127.536 21.3244 126.963 25.2493C127.874 25.411 128.785 25.558 129.697 25.7197C129.741 27.3514 129.77 28.9684 129.814 30.6001C130.476 30.9823 131.255 31.1587 132.019 31.1146C132.196 32.8933 132.108 34.6867 131.77 36.436C133.078 36.3184 134.18 37.9648 133.563 39.1261C132.519 39.1849 131.461 39.229 130.417 39.2878C131.182 41.4046 129.506 44.0065 127.271 44.1976C124.081 44.4622 121.083 40.6402 118.201 42.0514C118.51 46.2262 113.321 49.6807 109.573 47.7844C109.323 49.5043 106.956 50.4598 105.589 49.4014C106.265 46.4173 102.355 44.6827 99.3414 44.1682C96.8571 43.7419 94.3728 43.3156 91.8885 42.904C91.815 43.8154 91.7415 44.7121 91.668 45.6235C90.933 44.4328 89.2425 46.4026 89.7864 47.6962C90.3303 48.9898 91.6386 50.1658 91.2858 51.5182C91.1388 52.0768 90.7125 52.5178 90.4332 53.0323C89.4777 54.6934 90.051 56.7955 89.7717 58.6918C89.4924 60.5881 87.1551 62.4697 85.8174 61.0879C85.4352 63.8809 85.053 66.6592 84.6561 69.4522C84.465 70.8046 84.0093 72.4657 82.6716 72.7156C80.2608 73.186 78.3204 68.5114 76.38 70.0255C77.0415 71.9659 75.2922 74.3032 73.2489 74.2297C71.4261 76.567 72.5433 80.5948 70.1913 82.4176C68.6625 83.6083 66.4722 83.1673 64.5759 83.5348C62.6796 83.917 60.9303 86.4454 62.4591 87.6067C60.8274 88.9591 58.4313 88.8415 56.3733 88.3417C54.3153 87.8419 52.2426 87.0481 50.1405 87.298C48.0384 87.5479 45.9069 89.4001 46.3185 91.4728C43.8342 93.3691 40.7619 94.795 37.719 94.0453C36.9546 93.8542 36.0873 93.5896 35.4111 93.9718C34.7349 94.3687 34.5144 95.2213 34.2204 95.9563C33.3825 98.0143 31.251 99.4843 29.0166 99.5284C27.7377 99.5578 26.2236 99.2491 25.4004 100.219C24.93 100.763 24.8712 101.542 24.5772 102.204C23.6952 104.1 21.0933 104.394 19.05 103.924C17.0067 103.453 14.9781 102.498 12.9201 102.895C11.8911 106.878 10.8621 110.862 9.81836 114.846C9.49496 116.081 8.14256 117.609 7.31936 116.639C7.14296 115.596 6.96656 114.566 6.79016 113.523C5.64356 111.274 2.60066 115.963 0.748462 114.126C-0.986138 112.347 1.32176 119.3 3.60026 120.417C4.76156 120.99 6.08456 121.211 7.18706 121.872C8.43656 122.622 9.31856 123.872 10.3917 124.871C14.2431 128.443 20.0937 128.414 25.3269 128.193C26.8557 130.075 23.3424 132.75 24.2097 135C24.7683 136.44 26.6499 136.675 28.164 136.955C29.6781 137.234 31.5009 138.41 30.9864 139.865C30.5895 140.968 29.1636 141.218 27.9876 141.262C27.7818 143.232 27.576 145.201 27.3702 147.171C20.667 148.685 13.8315 149.611 6.96656 149.92C5.45246 151.096 6.31976 153.536 7.51046 155.036C8.70116 156.535 10.23 158.27 9.64196 160.107C11.0385 160.137 12.4203 160.166 13.8168 160.195C14.6106 161.621 13.0083 163.121 12.2292 164.547C9.92126 168.795 16.6098 174.542 15.1251 179.129Z" fill="#2F3031"/>
</svg>
