<svg width="67" height="62" viewBox="0 0 67 62" fill="none" xmlns="http://www.w3.org/2000/svg">
<g clip-path="url(#clip0_203_657)">
<path d="M16.8865 43.8108C18.6981 44.0844 23.9954 43.2635 25.6383 42.797C26.8283 42.4606 27.9695 42.0614 29.0662 41.6083C29.5991 41.3885 30.123 41.1732 30.6248 40.9175C44.4208 33.8841 49.7537 21.6923 49.3363 22.087C49.3363 22.087 27.7741 25.3435 25.554 32.9466C23.3338 40.5497 28.7288 46.7354 34.1726 45.9773C43.5594 44.672 52.9507 27.1423 49.3407 22.0825" stroke="white" stroke-opacity="0.8" stroke-miterlimit="10" stroke-linecap="round" stroke-linejoin="round"/>
<path d="M40.0071 24.6528C40.0071 24.6528 41.7654 31.4261 40.0071 34.4359C40.0071 34.4359 41.983 33.3818 47.8087 33.2652" stroke="white" stroke-opacity="0.8" stroke-miterlimit="10" stroke-linecap="round" stroke-linejoin="round"/>
<path d="M31.7393 27.2183C31.7393 27.2183 37.9468 37.0014 33.5065 39.3025" stroke="white" stroke-opacity="0.8" stroke-miterlimit="10" stroke-linecap="round" stroke-linejoin="round"/>
<path d="M33.5066 39.3072C33.5066 39.3072 38.4575 38.9977 42.8534 40.5811" stroke="white" stroke-opacity="0.8" stroke-miterlimit="10" stroke-linecap="round" stroke-linejoin="round"/>
<path d="M60.8367 61.3273C60.8367 61.3273 59.4336 61.6278 64.3757 43.2189C66.2539 36.2259 65.5435 32.5477 64.6998 30.5247C64.2735 29.4975 64.7842 28.3716 64.5178 27.295C62.9414 20.8716 64.6554 20.0867 63.5675 18.0323C63.5675 18.0323 55.1176 14.7309 58.4923 34.0683C47.7201 44.7709 52.1693 48.5568 52.1693 48.5568" stroke="white" stroke-opacity="0.8" stroke-miterlimit="10" stroke-linecap="round" stroke-linejoin="round"/>
<path d="M59.3313 19.279C59.3313 19.279 49.9845 -0.785059 46.783 0.757988C41.3925 3.35515 55.0598 19.8532 54.2783 24.6528" stroke="white" stroke-opacity="0.8" stroke-miterlimit="10" stroke-linecap="round"/>
<path d="M45.5221 17.8168C31.9747 -4.42286 46.5878 5.00139 45.9484 5.45892" stroke="white" stroke-opacity="0.8" stroke-miterlimit="10" stroke-linecap="round"/>
<path d="M39.7452 6.67446C41.8099 6.40533 30.7314 -0.79855 39.7452 18.7407" stroke="white" stroke-opacity="0.8" stroke-miterlimit="10" stroke-linecap="round"/>
<path d="M45.522 61.3273C45.522 61.3273 40.2869 56.5187 38.0845 47.1304" stroke="white" stroke-opacity="0.8" stroke-miterlimit="10" stroke-linecap="round"/>
<path d="M37.263 12.6629C37.263 12.6629 29.7501 7.9171 36.1574 22.0826" stroke="white" stroke-opacity="0.8" stroke-miterlimit="10" stroke-linecap="round"/>
<path d="M5.39057 61.3269C5.39057 61.3269 6.79371 61.6274 1.85164 43.2185C-0.0266099 36.2255 0.68384 32.5473 1.5275 30.5243C1.95377 29.4971 1.44313 28.3712 1.70955 27.2946C3.28586 20.8668 1.5719 20.0818 2.65978 18.0274C2.65978 18.0274 11.1097 14.726 7.73505 34.0634C18.5072 44.7661 14.0581 48.5519 14.0581 48.5519" stroke="white" stroke-opacity="0.8" stroke-miterlimit="10" stroke-linecap="round" stroke-linejoin="round"/>
<path d="M6.90039 19.279C6.90039 19.279 16.2472 -0.785059 19.4487 0.757988C24.8392 3.35515 11.172 19.8532 11.9535 24.6528" stroke="white" stroke-opacity="0.8" stroke-miterlimit="10" stroke-linecap="round"/>
<path d="M20.2835 5.45892C19.6441 5.00139 34.2527 -4.42286 20.7097 17.8168C20.7097 17.8168 17.5926 25.6621 17.979 27.7299" stroke="white" stroke-opacity="0.8" stroke-miterlimit="10" stroke-linecap="round"/>
<path d="M26.482 6.67446C24.4173 6.40533 35.4959 -0.798548 26.482 18.7407C26.482 18.7407 25.0212 22.5266 23.3694 27.7299" stroke="white" stroke-opacity="0.8" stroke-miterlimit="10" stroke-linecap="round"/>
<path d="M20.7051 61.3273C20.7051 61.3273 25.9402 56.5187 28.1426 47.1304" stroke="white" stroke-opacity="0.8" stroke-miterlimit="10" stroke-linecap="round"/>
<path d="M28.9642 12.6629C28.9642 12.6629 36.4772 7.9171 30.0699 22.0826L28.1472 26.1555" stroke="white" stroke-opacity="0.8" stroke-miterlimit="10" stroke-linecap="round"/>
</g>
<defs>
<clipPath id="clip0_203_657">
<rect width="66.2272" height="62" fill="white"/>
</clipPath>
</defs>
</svg>
