<?xml version="1.0" encoding="utf-8" ?>
<svg xmlns="http://www.w3.org/2000/svg" style="display: none;">

  <symbol id="button-menu" viewBox="0 0 34 34">
    <path d="M29.1428 8.49993C29.1428 7.82929 28.5992 7.28564 27.9285 7.28564L4.85711 7.28564C4.18645 7.28564 3.64282 7.82929 3.64282 8.49993C3.64282 9.17057 4.18645 9.71422 4.85711 9.71422L27.9285 9.71422C28.5992 9.71422 29.1428 9.17057 29.1428 8.49993Z" fill="white"/>
    <path d="M29.1428 16.9996C29.1428 16.3289 28.5992 15.7852 27.9285 15.7852L14.5714 15.7855C13.9007 15.7855 13.3571 16.3292 13.3571 16.9998C13.3571 17.6705 13.9007 18.2141 14.5714 18.2141L27.9285 18.2139C28.5992 18.2139 29.1428 17.6701 29.1428 16.9996Z" fill="white"/>
    <path d="M27.9285 24.2856C28.5992 24.2856 29.1428 24.8293 29.1428 25.4999C29.1428 26.1705 28.5992 26.7141 27.9285 26.7141H7.28568C6.61503 26.7141 6.07139 26.1705 6.07139 25.4999C6.07139 24.8293 6.61503 24.2856 7.28568 24.2856H27.9285Z" fill="white"/>
  </symbol>

  <symbol id="button-arrow" viewBox="0 0 17 29">
    <path d="M15.9998 14.3608L1 1.0001" stroke="#333333" stroke-width="2" stroke-linecap="round" stroke-linejoin="round"/>
    <path d="M15.9998 14.3608L1 1.0001" stroke="white" stroke-width="2" stroke-linecap="round" stroke-linejoin="round"/>
    <path d="M15.9998 14.6393L1 28" stroke="#333333" stroke-width="2" stroke-linecap="round" stroke-linejoin="round"/>
    <path d="M15.9998 14.6393L1 28" stroke="white" stroke-width="2" stroke-linecap="round" stroke-linejoin="round"/>
  </symbol>

  <symbol id="button-crosshairs" viewBox="0 0 30 30">
    <line y1="15.5" x2="30" y2="15.5" stroke="white"/>
    <line x1="15.5" y1="2.18557e-08" x2="15.5" y2="30" stroke="white"/>
  </symbol>

  <symbol id="quote-marks" viewBox="0 0 89 64">
    <path d="M8.53308 58.1616C3.46892 52.7828 0.75 46.75 0.75 36.9708C0.75 19.7625 12.8302 4.33888 30.3975 -3.28687L34.7881 3.4883C18.391 12.358 15.1853 23.8679 13.907 31.1249C16.5472 29.758 20.0037 29.2811 23.3912 29.5958C32.2609 30.4169 39.2524 37.6985 39.2524 46.75C39.2524 51.314 37.4394 55.691 34.2122 58.9182C30.985 62.1454 26.608 63.9584 22.0441 63.9584C16.7685 63.9584 11.724 61.5492 8.53308 58.1616ZM57.6997 58.1616C52.6356 52.7828 49.9167 46.75 49.9167 36.9708C49.9167 19.7625 61.9969 4.33888 79.5642 -3.28687L83.9547 3.4883C67.5577 12.358 64.352 23.8679 63.0737 31.1249C65.7139 29.758 69.1703 29.2811 72.5579 29.5958C81.4276 30.4169 88.4191 37.6985 88.4191 46.75C88.4191 51.314 86.6061 55.691 83.3789 58.9182C80.1517 62.1454 75.7747 63.9584 71.2107 63.9584C65.9352 63.9584 60.8907 61.5492 57.6997 58.1616Z" fill="#2F3031"/>
  </symbol>
</svg>
